<mxfile host="app.diagrams.net" agent="Mozilla/5.0 (Windows NT 10.0; Win64; x64) AppleWebKit/537.36 (KHTML, like Gecko) Chrome/134.0.0.0 Safari/537.36 OPR/119.0.0.0" version="27.1.6">
  <diagram name="Page-1" id="fOPXTH3xM05dgXcLHsS2">
    <mxGraphModel dx="784" dy="429" grid="1" gridSize="10" guides="1" tooltips="1" connect="1" arrows="0" fold="1" page="1" pageScale="1" pageWidth="900" pageHeight="1600" math="0" shadow="0">
      <root>
        <mxCell id="0" />
        <mxCell id="1" parent="0" />
        <mxCell id="YD0R1OaTcSya2No4DmvF-2" value="" style="endArrow=block;html=1;rounded=0;strokeWidth=1;endSize=1;endFill=1;" edge="1" parent="1">
          <mxGeometry width="50" height="50" relative="1" as="geometry">
            <mxPoint x="40" y="320" as="sourcePoint" />
            <mxPoint x="120" y="320" as="targetPoint" />
          </mxGeometry>
        </mxCell>
        <mxCell id="YD0R1OaTcSya2No4DmvF-4" value="" style="rounded=0;whiteSpace=wrap;html=1;" vertex="1" parent="1">
          <mxGeometry x="120" y="280" width="10" height="80" as="geometry" />
        </mxCell>
        <mxCell id="YD0R1OaTcSya2No4DmvF-6" value="" style="endArrow=block;html=1;rounded=0;exitX=1;exitY=0.5;exitDx=0;exitDy=0;strokeColor=default;strokeWidth=1;align=center;verticalAlign=middle;fontFamily=Helvetica;fontSize=11;fontColor=default;labelBackgroundColor=default;endFill=1;endSize=1;" edge="1" parent="1" source="YD0R1OaTcSya2No4DmvF-4">
          <mxGeometry width="50" height="50" relative="1" as="geometry">
            <mxPoint x="400" y="410" as="sourcePoint" />
            <mxPoint x="160" y="320" as="targetPoint" />
          </mxGeometry>
        </mxCell>
        <mxCell id="YD0R1OaTcSya2No4DmvF-33" style="edgeStyle=orthogonalEdgeStyle;rounded=0;orthogonalLoop=1;jettySize=auto;html=1;exitX=1;exitY=0.5;exitDx=0;exitDy=0;exitPerimeter=0;entryX=0;entryY=0.5;entryDx=0;entryDy=0;targetPerimeterSpacing=-1;endSize=1;endArrow=block;endFill=1;" edge="1" parent="1" source="YD0R1OaTcSya2No4DmvF-7" target="YD0R1OaTcSya2No4DmvF-14">
          <mxGeometry relative="1" as="geometry" />
        </mxCell>
        <mxCell id="YD0R1OaTcSya2No4DmvF-36" style="edgeStyle=orthogonalEdgeStyle;rounded=0;orthogonalLoop=1;jettySize=auto;html=1;exitX=1;exitY=0.5;exitDx=0;exitDy=0;exitPerimeter=0;entryX=0;entryY=0.5;entryDx=0;entryDy=0;targetPerimeterSpacing=-1;endSize=1;endArrow=block;endFill=1;" edge="1" parent="1" source="YD0R1OaTcSya2No4DmvF-7" target="YD0R1OaTcSya2No4DmvF-13">
          <mxGeometry relative="1" as="geometry" />
        </mxCell>
        <mxCell id="YD0R1OaTcSya2No4DmvF-37" style="edgeStyle=orthogonalEdgeStyle;rounded=0;orthogonalLoop=1;jettySize=auto;html=1;exitX=1;exitY=0.5;exitDx=0;exitDy=0;exitPerimeter=0;entryX=0;entryY=0.5;entryDx=0;entryDy=0;targetPerimeterSpacing=-1;endSize=1;endArrow=block;endFill=1;" edge="1" parent="1" source="YD0R1OaTcSya2No4DmvF-7" target="YD0R1OaTcSya2No4DmvF-8">
          <mxGeometry relative="1" as="geometry" />
        </mxCell>
        <mxCell id="YD0R1OaTcSya2No4DmvF-38" style="edgeStyle=orthogonalEdgeStyle;rounded=0;orthogonalLoop=1;jettySize=auto;html=1;exitX=1;exitY=0.5;exitDx=0;exitDy=0;exitPerimeter=0;entryX=0;entryY=0.5;entryDx=0;entryDy=0;targetPerimeterSpacing=-1;endSize=1;endArrow=block;endFill=1;" edge="1" parent="1" source="YD0R1OaTcSya2No4DmvF-7" target="YD0R1OaTcSya2No4DmvF-12">
          <mxGeometry relative="1" as="geometry" />
        </mxCell>
        <mxCell id="YD0R1OaTcSya2No4DmvF-41" style="edgeStyle=orthogonalEdgeStyle;rounded=0;orthogonalLoop=1;jettySize=auto;html=1;exitX=1;exitY=0.5;exitDx=0;exitDy=0;exitPerimeter=0;entryX=0.5;entryY=0;entryDx=0;entryDy=0;targetPerimeterSpacing=-1;endSize=1;endArrow=block;endFill=1;" edge="1" parent="1" source="YD0R1OaTcSya2No4DmvF-7" target="YD0R1OaTcSya2No4DmvF-40">
          <mxGeometry relative="1" as="geometry" />
        </mxCell>
        <mxCell id="YD0R1OaTcSya2No4DmvF-7" value="" style="shape=mxgraph.pid.compressors_-_iso.compressor_(piston);html=1;pointerEvents=1;align=center;verticalLabelPosition=bottom;verticalAlign=top;dashed=0;" vertex="1" parent="1">
          <mxGeometry x="160" y="310" width="20" height="20" as="geometry" />
        </mxCell>
        <mxCell id="YD0R1OaTcSya2No4DmvF-62" style="edgeStyle=orthogonalEdgeStyle;rounded=0;orthogonalLoop=1;jettySize=auto;html=1;exitX=1;exitY=0.5;exitDx=0;exitDy=0;entryX=0;entryY=0.5;entryDx=0;entryDy=0;endSize=1;endArrow=block;endFill=1;" edge="1" parent="1" source="YD0R1OaTcSya2No4DmvF-8">
          <mxGeometry relative="1" as="geometry">
            <mxPoint x="236.5" y="275" as="sourcePoint" />
            <mxPoint x="360" y="310" as="targetPoint" />
          </mxGeometry>
        </mxCell>
        <mxCell id="YD0R1OaTcSya2No4DmvF-8" value="" style="rounded=0;whiteSpace=wrap;html=1;" vertex="1" parent="1">
          <mxGeometry x="220" y="270" width="20" height="10" as="geometry" />
        </mxCell>
        <mxCell id="YD0R1OaTcSya2No4DmvF-60" style="edgeStyle=orthogonalEdgeStyle;rounded=0;orthogonalLoop=1;jettySize=auto;html=1;exitX=1;exitY=0.5;exitDx=0;exitDy=0;entryX=0;entryY=1;entryDx=0;entryDy=0;endSize=1;endArrow=block;endFill=1;" edge="1" parent="1" source="YD0R1OaTcSya2No4DmvF-12" target="YD0R1OaTcSya2No4DmvF-44">
          <mxGeometry relative="1" as="geometry" />
        </mxCell>
        <mxCell id="YD0R1OaTcSya2No4DmvF-12" value="" style="rounded=0;whiteSpace=wrap;html=1;" vertex="1" parent="1">
          <mxGeometry x="220" y="330" width="20" height="10" as="geometry" />
        </mxCell>
        <mxCell id="YD0R1OaTcSya2No4DmvF-59" style="edgeStyle=orthogonalEdgeStyle;rounded=0;orthogonalLoop=1;jettySize=auto;html=1;exitX=1;exitY=0.5;exitDx=0;exitDy=0;entryX=0;entryY=0.5;entryDx=0;entryDy=0;endSize=1;endArrow=block;endFill=1;" edge="1" parent="1" source="YD0R1OaTcSya2No4DmvF-13">
          <mxGeometry relative="1" as="geometry">
            <mxPoint x="237.5" y="365" as="sourcePoint" />
            <mxPoint x="301" y="310" as="targetPoint" />
            <Array as="points">
              <mxPoint x="288" y="365" />
              <mxPoint x="288" y="300" />
              <mxPoint x="301" y="300" />
            </Array>
          </mxGeometry>
        </mxCell>
        <mxCell id="YD0R1OaTcSya2No4DmvF-13" value="" style="rounded=0;whiteSpace=wrap;html=1;" vertex="1" parent="1">
          <mxGeometry x="220" y="360" width="20" height="10" as="geometry" />
        </mxCell>
        <mxCell id="YD0R1OaTcSya2No4DmvF-61" style="edgeStyle=orthogonalEdgeStyle;rounded=0;orthogonalLoop=1;jettySize=auto;html=1;exitX=1;exitY=0.5;exitDx=0;exitDy=0;entryX=0;entryY=0.5;entryDx=0;entryDy=0;endSize=1;endArrow=block;endFill=1;" edge="1" parent="1" source="YD0R1OaTcSya2No4DmvF-14">
          <mxGeometry relative="1" as="geometry">
            <mxPoint x="236.5" y="305" as="sourcePoint" />
            <mxPoint x="340" y="310" as="targetPoint" />
            <Array as="points">
              <mxPoint x="267" y="305" />
              <mxPoint x="267" y="280" />
              <mxPoint x="340" y="280" />
            </Array>
          </mxGeometry>
        </mxCell>
        <mxCell id="YD0R1OaTcSya2No4DmvF-14" value="" style="rounded=0;whiteSpace=wrap;html=1;" vertex="1" parent="1">
          <mxGeometry x="220" y="300" width="20" height="10" as="geometry" />
        </mxCell>
        <mxCell id="YD0R1OaTcSya2No4DmvF-83" style="edgeStyle=orthogonalEdgeStyle;rounded=0;orthogonalLoop=1;jettySize=auto;html=1;exitX=0.5;exitY=1;exitDx=0;exitDy=0;entryX=0;entryY=0.5;entryDx=0;entryDy=0;strokeColor=default;align=center;verticalAlign=middle;fontFamily=Helvetica;fontSize=11;fontColor=default;labelBackgroundColor=default;endArrow=block;endFill=1;endSize=1;" edge="1" parent="1" source="YD0R1OaTcSya2No4DmvF-40" target="YD0R1OaTcSya2No4DmvF-82">
          <mxGeometry relative="1" as="geometry" />
        </mxCell>
        <mxCell id="YD0R1OaTcSya2No4DmvF-40" value="" style="whiteSpace=wrap;html=1;aspect=fixed;" vertex="1" parent="1">
          <mxGeometry x="180" y="400" width="40" height="40" as="geometry" />
        </mxCell>
        <mxCell id="YD0R1OaTcSya2No4DmvF-69" style="edgeStyle=orthogonalEdgeStyle;rounded=0;orthogonalLoop=1;jettySize=auto;html=1;exitX=1;exitY=0.5;exitDx=0;exitDy=0;strokeColor=default;align=center;verticalAlign=middle;fontFamily=Helvetica;fontSize=11;fontColor=default;labelBackgroundColor=default;endArrow=block;endFill=1;endSize=1;entryX=0;entryY=0.75;entryDx=0;entryDy=0;" edge="1" parent="1" source="YD0R1OaTcSya2No4DmvF-42" target="YD0R1OaTcSya2No4DmvF-64">
          <mxGeometry relative="1" as="geometry">
            <mxPoint x="304" y="390" as="targetPoint" />
          </mxGeometry>
        </mxCell>
        <mxCell id="YD0R1OaTcSya2No4DmvF-42" value="" style="rounded=1;whiteSpace=wrap;html=1;flipV=1;flipH=1;direction=south;" vertex="1" parent="1">
          <mxGeometry x="300" y="310" width="7" height="60" as="geometry" />
        </mxCell>
        <mxCell id="YD0R1OaTcSya2No4DmvF-73" style="edgeStyle=orthogonalEdgeStyle;rounded=0;orthogonalLoop=1;jettySize=auto;html=1;exitX=1;exitY=0.5;exitDx=0;exitDy=0;entryX=0;entryY=0.5;entryDx=0;entryDy=0;entryPerimeter=0;strokeColor=default;align=center;verticalAlign=middle;fontFamily=Helvetica;fontSize=11;fontColor=default;labelBackgroundColor=default;endArrow=block;endFill=1;endSize=1;" edge="1" parent="1">
          <mxGeometry relative="1" as="geometry">
            <mxPoint x="343.5" y="400" as="targetPoint" />
            <mxPoint x="340.4999999999999" y="370" as="sourcePoint" />
            <Array as="points">
              <mxPoint x="344" y="370" />
            </Array>
          </mxGeometry>
        </mxCell>
        <mxCell id="YD0R1OaTcSya2No4DmvF-43" value="" style="rounded=1;whiteSpace=wrap;html=1;flipV=0;flipH=1;direction=south;" vertex="1" parent="1">
          <mxGeometry x="340" y="310" width="7" height="60" as="geometry" />
        </mxCell>
        <mxCell id="YD0R1OaTcSya2No4DmvF-71" style="edgeStyle=orthogonalEdgeStyle;rounded=0;orthogonalLoop=1;jettySize=auto;html=1;exitX=1;exitY=0.5;exitDx=0;exitDy=0;entryX=0;entryY=0.5;entryDx=0;entryDy=0;strokeColor=default;align=center;verticalAlign=middle;fontFamily=Helvetica;fontSize=11;fontColor=default;labelBackgroundColor=default;endArrow=block;endFill=1;endSize=1;" edge="1" parent="1">
          <mxGeometry relative="1" as="geometry">
            <mxPoint x="324" y="400" as="targetPoint" />
            <mxPoint x="322.4999999999999" y="370" as="sourcePoint" />
          </mxGeometry>
        </mxCell>
        <mxCell id="YD0R1OaTcSya2No4DmvF-44" value="" style="rounded=1;whiteSpace=wrap;html=1;flipV=0;flipH=1;direction=south;" vertex="1" parent="1">
          <mxGeometry x="320" y="310" width="7" height="60" as="geometry" />
        </mxCell>
        <mxCell id="YD0R1OaTcSya2No4DmvF-74" style="edgeStyle=orthogonalEdgeStyle;rounded=0;orthogonalLoop=1;jettySize=auto;html=1;exitX=1;exitY=0.5;exitDx=0;exitDy=0;entryX=0;entryY=0.5;entryDx=0;entryDy=0;strokeColor=default;align=center;verticalAlign=middle;fontFamily=Helvetica;fontSize=11;fontColor=default;labelBackgroundColor=default;endArrow=block;endFill=1;endSize=1;" edge="1" parent="1">
          <mxGeometry relative="1" as="geometry">
            <mxPoint x="361.4999999999999" y="370" as="sourcePoint" />
            <mxPoint x="363.5" y="400" as="targetPoint" />
          </mxGeometry>
        </mxCell>
        <mxCell id="YD0R1OaTcSya2No4DmvF-45" value="" style="rounded=1;whiteSpace=wrap;html=1;flipV=0;flipH=1;direction=south;" vertex="1" parent="1">
          <mxGeometry x="360" y="310" width="7" height="60" as="geometry" />
        </mxCell>
        <mxCell id="YD0R1OaTcSya2No4DmvF-47" value="" style="endArrow=block;html=1;rounded=1;strokeWidth=1;endFill=1;curved=0;endSize=1;" edge="1" parent="1">
          <mxGeometry width="50" height="50" relative="1" as="geometry">
            <mxPoint x="303.2123809523807" y="325" as="sourcePoint" />
            <mxPoint x="303.2123809523807" y="355" as="targetPoint" />
          </mxGeometry>
        </mxCell>
        <mxCell id="YD0R1OaTcSya2No4DmvF-48" value="" style="endArrow=block;html=1;rounded=1;strokeWidth=1;endFill=1;curved=0;endSize=1;" edge="1" parent="1">
          <mxGeometry width="50" height="50" relative="1" as="geometry">
            <mxPoint x="323.26" y="325" as="sourcePoint" />
            <mxPoint x="323.26" y="355" as="targetPoint" />
          </mxGeometry>
        </mxCell>
        <mxCell id="YD0R1OaTcSya2No4DmvF-49" value="" style="endArrow=block;html=1;rounded=1;strokeWidth=1;endFill=1;curved=0;endSize=1;" edge="1" parent="1">
          <mxGeometry width="50" height="50" relative="1" as="geometry">
            <mxPoint x="343.26" y="325" as="sourcePoint" />
            <mxPoint x="343.26" y="355" as="targetPoint" />
          </mxGeometry>
        </mxCell>
        <mxCell id="YD0R1OaTcSya2No4DmvF-50" value="" style="endArrow=block;html=1;rounded=1;strokeWidth=1;endFill=1;curved=0;endSize=1;" edge="1" parent="1">
          <mxGeometry width="50" height="50" relative="1" as="geometry">
            <mxPoint x="363.26" y="325" as="sourcePoint" />
            <mxPoint x="363.26" y="355" as="targetPoint" />
          </mxGeometry>
        </mxCell>
        <mxCell id="YD0R1OaTcSya2No4DmvF-75" style="edgeStyle=orthogonalEdgeStyle;rounded=0;orthogonalLoop=1;jettySize=auto;html=1;exitX=0;exitY=0.25;exitDx=0;exitDy=0;strokeColor=default;align=center;verticalAlign=middle;fontFamily=Helvetica;fontSize=11;fontColor=default;labelBackgroundColor=default;endArrow=none;endFill=1;endSize=1;startFill=0;" edge="1" parent="1" source="YD0R1OaTcSya2No4DmvF-64">
          <mxGeometry relative="1" as="geometry">
            <mxPoint x="340" y="440" as="targetPoint" />
            <mxPoint x="305.5000000000001" y="400" as="sourcePoint" />
            <Array as="points">
              <mxPoint x="308" y="390" />
              <mxPoint x="317" y="390" />
              <mxPoint x="317" y="440" />
            </Array>
          </mxGeometry>
        </mxCell>
        <mxCell id="YD0R1OaTcSya2No4DmvF-88" style="edgeStyle=orthogonalEdgeStyle;rounded=0;orthogonalLoop=1;jettySize=auto;html=1;exitX=1;exitY=0.5;exitDx=0;exitDy=0;strokeColor=default;align=center;verticalAlign=middle;fontFamily=Helvetica;fontSize=11;fontColor=default;labelBackgroundColor=default;endArrow=block;endFill=1;endSize=1;" edge="1" parent="1" source="YD0R1OaTcSya2No4DmvF-64">
          <mxGeometry relative="1" as="geometry">
            <mxPoint x="306.04761904761904" y="430" as="targetPoint" />
          </mxGeometry>
        </mxCell>
        <mxCell id="YD0R1OaTcSya2No4DmvF-64" value="" style="rounded=1;whiteSpace=wrap;html=1;direction=south;" vertex="1" parent="1">
          <mxGeometry x="301" y="400" width="10" height="20" as="geometry" />
        </mxCell>
        <mxCell id="YD0R1OaTcSya2No4DmvF-76" style="edgeStyle=orthogonalEdgeStyle;rounded=0;orthogonalLoop=1;jettySize=auto;html=1;exitX=0;exitY=0.25;exitDx=0;exitDy=0;strokeColor=default;align=center;verticalAlign=middle;fontFamily=Helvetica;fontSize=11;fontColor=default;labelBackgroundColor=default;endArrow=none;endFill=1;endSize=1;startFill=0;" edge="1" parent="1" source="YD0R1OaTcSya2No4DmvF-65">
          <mxGeometry relative="1" as="geometry">
            <mxPoint x="370" y="440" as="targetPoint" />
            <mxPoint x="325.5000000000001" y="400" as="sourcePoint" />
            <Array as="points">
              <mxPoint x="328" y="390" />
              <mxPoint x="337" y="390" />
              <mxPoint x="337" y="440" />
            </Array>
          </mxGeometry>
        </mxCell>
        <mxCell id="YD0R1OaTcSya2No4DmvF-89" style="edgeStyle=orthogonalEdgeStyle;rounded=0;orthogonalLoop=1;jettySize=auto;html=1;exitX=1;exitY=0.5;exitDx=0;exitDy=0;strokeColor=default;align=center;verticalAlign=middle;fontFamily=Helvetica;fontSize=11;fontColor=default;labelBackgroundColor=default;endArrow=block;endFill=1;endSize=1;" edge="1" parent="1" source="YD0R1OaTcSya2No4DmvF-65">
          <mxGeometry relative="1" as="geometry">
            <mxPoint x="326.04761904761904" y="430" as="targetPoint" />
          </mxGeometry>
        </mxCell>
        <mxCell id="YD0R1OaTcSya2No4DmvF-65" value="" style="rounded=1;whiteSpace=wrap;html=1;direction=south;" vertex="1" parent="1">
          <mxGeometry x="321" y="400" width="10" height="20" as="geometry" />
        </mxCell>
        <mxCell id="YD0R1OaTcSya2No4DmvF-77" style="edgeStyle=orthogonalEdgeStyle;rounded=0;orthogonalLoop=1;jettySize=auto;html=1;exitX=0;exitY=0.15;exitDx=0;exitDy=0;exitPerimeter=0;strokeColor=default;align=center;verticalAlign=middle;fontFamily=Helvetica;fontSize=11;fontColor=default;labelBackgroundColor=default;endArrow=none;endFill=1;endSize=1;startFill=0;" edge="1" parent="1" source="YD0R1OaTcSya2No4DmvF-66">
          <mxGeometry relative="1" as="geometry">
            <mxPoint x="430" y="440" as="targetPoint" />
            <mxPoint x="346" y="400" as="sourcePoint" />
            <Array as="points">
              <mxPoint x="350" y="390" />
              <mxPoint x="357" y="390" />
              <mxPoint x="357" y="440" />
            </Array>
          </mxGeometry>
        </mxCell>
        <mxCell id="YD0R1OaTcSya2No4DmvF-90" style="edgeStyle=orthogonalEdgeStyle;rounded=0;orthogonalLoop=1;jettySize=auto;html=1;exitX=1;exitY=0.5;exitDx=0;exitDy=0;strokeColor=default;align=center;verticalAlign=middle;fontFamily=Helvetica;fontSize=11;fontColor=default;labelBackgroundColor=default;endArrow=block;endFill=1;endSize=1;" edge="1" parent="1" source="YD0R1OaTcSya2No4DmvF-66">
          <mxGeometry relative="1" as="geometry">
            <mxPoint x="346.5238095238095" y="430" as="targetPoint" />
          </mxGeometry>
        </mxCell>
        <mxCell id="YD0R1OaTcSya2No4DmvF-66" value="" style="rounded=1;whiteSpace=wrap;html=1;direction=south;" vertex="1" parent="1">
          <mxGeometry x="341.5" y="400" width="10" height="20" as="geometry" />
        </mxCell>
        <mxCell id="YD0R1OaTcSya2No4DmvF-78" style="edgeStyle=orthogonalEdgeStyle;rounded=0;orthogonalLoop=1;jettySize=auto;html=1;exitX=0;exitY=0.25;exitDx=0;exitDy=0;strokeColor=default;align=center;verticalAlign=middle;fontFamily=Helvetica;fontSize=11;fontColor=default;labelBackgroundColor=default;endArrow=block;endFill=1;endSize=1;entryX=0;entryY=0.5;entryDx=0;entryDy=0;" edge="1" parent="1" source="YD0R1OaTcSya2No4DmvF-67" target="YD0R1OaTcSya2No4DmvF-79">
          <mxGeometry relative="1" as="geometry">
            <mxPoint x="377" y="440" as="targetPoint" />
            <mxPoint x="366" y="400" as="sourcePoint" />
            <Array as="points">
              <mxPoint x="369" y="390" />
              <mxPoint x="377" y="390" />
              <mxPoint x="377" y="440" />
            </Array>
          </mxGeometry>
        </mxCell>
        <mxCell id="YD0R1OaTcSya2No4DmvF-91" style="edgeStyle=orthogonalEdgeStyle;rounded=0;orthogonalLoop=1;jettySize=auto;html=1;exitX=1;exitY=0.5;exitDx=0;exitDy=0;strokeColor=default;align=center;verticalAlign=middle;fontFamily=Helvetica;fontSize=11;fontColor=default;labelBackgroundColor=default;endArrow=block;endFill=1;endSize=1;" edge="1" parent="1" source="YD0R1OaTcSya2No4DmvF-67">
          <mxGeometry relative="1" as="geometry">
            <mxPoint x="366.5238095238095" y="430" as="targetPoint" />
          </mxGeometry>
        </mxCell>
        <mxCell id="YD0R1OaTcSya2No4DmvF-67" value="" style="rounded=1;whiteSpace=wrap;html=1;direction=south;" vertex="1" parent="1">
          <mxGeometry x="361.5" y="400" width="10" height="20" as="geometry" />
        </mxCell>
        <mxCell id="YD0R1OaTcSya2No4DmvF-80" style="edgeStyle=orthogonalEdgeStyle;rounded=0;orthogonalLoop=1;jettySize=auto;html=1;exitX=0.5;exitY=1;exitDx=0;exitDy=0;strokeColor=default;align=center;verticalAlign=middle;fontFamily=Helvetica;fontSize=11;fontColor=default;labelBackgroundColor=default;endArrow=block;endFill=1;endSize=1;" edge="1" parent="1" source="YD0R1OaTcSya2No4DmvF-79">
          <mxGeometry relative="1" as="geometry">
            <mxPoint x="440" y="460" as="targetPoint" />
            <Array as="points">
              <mxPoint x="440" y="460" />
              <mxPoint x="440" y="460" />
            </Array>
          </mxGeometry>
        </mxCell>
        <mxCell id="YD0R1OaTcSya2No4DmvF-123" style="edgeStyle=orthogonalEdgeStyle;rounded=0;orthogonalLoop=1;jettySize=auto;html=1;exitX=1;exitY=0.5;exitDx=0;exitDy=0;strokeColor=default;align=center;verticalAlign=middle;fontFamily=Helvetica;fontSize=11;fontColor=default;labelBackgroundColor=default;endArrow=block;endFill=1;endSize=1;" edge="1" parent="1" source="YD0R1OaTcSya2No4DmvF-79">
          <mxGeometry relative="1" as="geometry">
            <mxPoint x="480" y="440.1428571428571" as="targetPoint" />
          </mxGeometry>
        </mxCell>
        <mxCell id="YD0R1OaTcSya2No4DmvF-79" value="" style="ellipse;whiteSpace=wrap;html=1;aspect=fixed;" vertex="1" parent="1">
          <mxGeometry x="435" y="435" width="10" height="10" as="geometry" />
        </mxCell>
        <mxCell id="YD0R1OaTcSya2No4DmvF-86" style="edgeStyle=orthogonalEdgeStyle;rounded=0;orthogonalLoop=1;jettySize=auto;html=1;exitX=1;exitY=0.5;exitDx=0;exitDy=0;entryX=0;entryY=0.5;entryDx=0;entryDy=0;strokeColor=default;align=center;verticalAlign=middle;fontFamily=Helvetica;fontSize=11;fontColor=default;labelBackgroundColor=default;endArrow=block;endFill=1;endSize=1;" edge="1" parent="1" source="YD0R1OaTcSya2No4DmvF-81" target="YD0R1OaTcSya2No4DmvF-85">
          <mxGeometry relative="1" as="geometry" />
        </mxCell>
        <mxCell id="YD0R1OaTcSya2No4DmvF-81" value="" style="rhombus;whiteSpace=wrap;html=1;" vertex="1" parent="1">
          <mxGeometry x="435" y="460" width="10" height="10" as="geometry" />
        </mxCell>
        <mxCell id="YD0R1OaTcSya2No4DmvF-84" style="edgeStyle=orthogonalEdgeStyle;rounded=0;orthogonalLoop=1;jettySize=auto;html=1;exitX=1;exitY=0.5;exitDx=0;exitDy=0;entryX=0;entryY=0.5;entryDx=0;entryDy=0;strokeColor=default;align=center;verticalAlign=middle;fontFamily=Helvetica;fontSize=11;fontColor=default;labelBackgroundColor=default;endArrow=block;endFill=1;endSize=1;" edge="1" parent="1" source="YD0R1OaTcSya2No4DmvF-82" target="YD0R1OaTcSya2No4DmvF-81">
          <mxGeometry relative="1" as="geometry" />
        </mxCell>
        <mxCell id="YD0R1OaTcSya2No4DmvF-124" style="edgeStyle=orthogonalEdgeStyle;rounded=0;orthogonalLoop=1;jettySize=auto;html=1;exitX=0.5;exitY=1;exitDx=0;exitDy=0;strokeColor=default;align=center;verticalAlign=middle;fontFamily=Helvetica;fontSize=11;fontColor=default;labelBackgroundColor=default;endArrow=block;endFill=1;endSize=1;" edge="1" parent="1" source="YD0R1OaTcSya2No4DmvF-82">
          <mxGeometry relative="1" as="geometry">
            <mxPoint x="296" y="490" as="targetPoint" />
          </mxGeometry>
        </mxCell>
        <mxCell id="YD0R1OaTcSya2No4DmvF-82" value="" style="ellipse;whiteSpace=wrap;html=1;aspect=fixed;" vertex="1" parent="1">
          <mxGeometry x="291" y="460" width="10" height="10" as="geometry" />
        </mxCell>
        <mxCell id="YD0R1OaTcSya2No4DmvF-85" value="" style="rounded=1;whiteSpace=wrap;html=1;" vertex="1" parent="1">
          <mxGeometry x="470" y="455" width="30" height="20" as="geometry" />
        </mxCell>
        <mxCell id="YD0R1OaTcSya2No4DmvF-87" value="" style="endArrow=block;html=1;rounded=0;strokeColor=default;align=center;verticalAlign=middle;fontFamily=Helvetica;fontSize=11;fontColor=default;labelBackgroundColor=default;endFill=1;endSize=1;" edge="1" parent="1">
          <mxGeometry width="50" height="50" relative="1" as="geometry">
            <mxPoint x="110" y="380" as="sourcePoint" />
            <mxPoint x="200" y="380" as="targetPoint" />
          </mxGeometry>
        </mxCell>
        <mxCell id="YD0R1OaTcSya2No4DmvF-93" value="" style="shape=stencil(7VXBTsQgFPwaroYFt9GjqXo22S/A7tMSKRDA3fXvpX1tLC5trNWLMenlzZSZ4fVRCC99LSwQRoW3UAXCbwljB+GkeFQRZpGpESyusdSiAUQewEkfhAqyQsoHZ17gKPehXyN1Hd8JyB57HdqW/I7Qmwi2Dy8ro3V0l0b7hBnxUVtIHZIAOxS20aOBAA5Riuipry62WL9hvcGKsPtPGSIyFYOXT8bBszOvep/NZ0W74zNioBtzgI9EG5YE2hb5RKmEknokQROF4cssUSjWS1xeLdhH19+JNsX2SqVweGYEQClpPYwmkmYGa6JHbD7c9wKk/ivsf9Oa8+EE/Jx7Yp54J9YrbRedqi8b54d58fJ/9+xy+nft539hk9PcLTu7PzoU794OeAc=);html=1;pointerEvents=1;align=center;verticalLabelPosition=bottom;verticalAlign=top;dashed=0;" vertex="1" parent="1">
          <mxGeometry x="472" y="310" width="17" height="20" as="geometry" />
        </mxCell>
        <mxCell id="YD0R1OaTcSya2No4DmvF-106" style="edgeStyle=orthogonalEdgeStyle;rounded=0;orthogonalLoop=1;jettySize=auto;html=1;exitX=0;exitY=0.5;exitDx=0;exitDy=0;strokeColor=default;align=center;verticalAlign=middle;fontFamily=Helvetica;fontSize=11;fontColor=default;labelBackgroundColor=default;endArrow=block;endFill=1;endSize=1;" edge="1" parent="1" source="YD0R1OaTcSya2No4DmvF-95">
          <mxGeometry relative="1" as="geometry">
            <mxPoint x="400" y="275" as="targetPoint" />
          </mxGeometry>
        </mxCell>
        <mxCell id="YD0R1OaTcSya2No4DmvF-95" value="" style="rounded=0;whiteSpace=wrap;html=1;" vertex="1" parent="1">
          <mxGeometry x="411" y="270" width="20" height="10" as="geometry" />
        </mxCell>
        <mxCell id="YD0R1OaTcSya2No4DmvF-108" style="edgeStyle=orthogonalEdgeStyle;rounded=0;orthogonalLoop=1;jettySize=auto;html=1;exitX=0;exitY=0.5;exitDx=0;exitDy=0;strokeColor=default;align=center;verticalAlign=middle;fontFamily=Helvetica;fontSize=11;fontColor=default;labelBackgroundColor=default;endArrow=block;endFill=1;endSize=1;" edge="1" parent="1" source="YD0R1OaTcSya2No4DmvF-96">
          <mxGeometry relative="1" as="geometry">
            <mxPoint x="400" y="335" as="targetPoint" />
          </mxGeometry>
        </mxCell>
        <mxCell id="YD0R1OaTcSya2No4DmvF-96" value="" style="rounded=0;whiteSpace=wrap;html=1;" vertex="1" parent="1">
          <mxGeometry x="411" y="330" width="20" height="10" as="geometry" />
        </mxCell>
        <mxCell id="YD0R1OaTcSya2No4DmvF-109" style="edgeStyle=orthogonalEdgeStyle;rounded=0;orthogonalLoop=1;jettySize=auto;html=1;exitX=0;exitY=0.5;exitDx=0;exitDy=0;strokeColor=default;align=center;verticalAlign=middle;fontFamily=Helvetica;fontSize=11;fontColor=default;labelBackgroundColor=default;endArrow=block;endFill=1;endSize=1;" edge="1" parent="1" source="YD0R1OaTcSya2No4DmvF-97">
          <mxGeometry relative="1" as="geometry">
            <mxPoint x="400" y="365" as="targetPoint" />
          </mxGeometry>
        </mxCell>
        <mxCell id="YD0R1OaTcSya2No4DmvF-97" value="" style="rounded=0;whiteSpace=wrap;html=1;" vertex="1" parent="1">
          <mxGeometry x="411" y="360" width="20" height="10" as="geometry" />
        </mxCell>
        <mxCell id="YD0R1OaTcSya2No4DmvF-107" style="edgeStyle=orthogonalEdgeStyle;rounded=0;orthogonalLoop=1;jettySize=auto;html=1;exitX=0;exitY=0.5;exitDx=0;exitDy=0;strokeColor=default;align=center;verticalAlign=middle;fontFamily=Helvetica;fontSize=11;fontColor=default;labelBackgroundColor=default;endArrow=block;endFill=1;endSize=1;" edge="1" parent="1" source="YD0R1OaTcSya2No4DmvF-98">
          <mxGeometry relative="1" as="geometry">
            <mxPoint x="400" y="305" as="targetPoint" />
          </mxGeometry>
        </mxCell>
        <mxCell id="YD0R1OaTcSya2No4DmvF-98" value="" style="rounded=0;whiteSpace=wrap;html=1;" vertex="1" parent="1">
          <mxGeometry x="411" y="300" width="20" height="10" as="geometry" />
        </mxCell>
        <mxCell id="YD0R1OaTcSya2No4DmvF-99" value="" style="endArrow=block;html=1;rounded=0;exitX=-0.059;exitY=0.5;exitDx=0;exitDy=0;exitPerimeter=0;strokeColor=default;align=center;verticalAlign=middle;fontFamily=Helvetica;fontSize=11;fontColor=default;labelBackgroundColor=default;endFill=1;endSize=1;" edge="1" parent="1" source="YD0R1OaTcSya2No4DmvF-93">
          <mxGeometry width="50" height="50" relative="1" as="geometry">
            <mxPoint x="441" y="280" as="sourcePoint" />
            <mxPoint x="451" y="320" as="targetPoint" />
          </mxGeometry>
        </mxCell>
        <mxCell id="YD0R1OaTcSya2No4DmvF-100" value="" style="endArrow=none;html=1;rounded=0;endSize=6;" edge="1" parent="1">
          <mxGeometry width="50" height="50" relative="1" as="geometry">
            <mxPoint x="451" y="365.5" as="sourcePoint" />
            <mxPoint x="451" y="274.5" as="targetPoint" />
          </mxGeometry>
        </mxCell>
        <mxCell id="YD0R1OaTcSya2No4DmvF-101" value="" style="endArrow=block;html=1;rounded=0;entryX=1;entryY=0.5;entryDx=0;entryDy=0;strokeColor=default;align=center;verticalAlign=middle;fontFamily=Helvetica;fontSize=11;fontColor=default;labelBackgroundColor=default;endFill=1;endSize=1;" edge="1" parent="1" target="YD0R1OaTcSya2No4DmvF-95">
          <mxGeometry width="50" height="50" relative="1" as="geometry">
            <mxPoint x="451" y="275" as="sourcePoint" />
            <mxPoint x="522" y="250" as="targetPoint" />
          </mxGeometry>
        </mxCell>
        <mxCell id="YD0R1OaTcSya2No4DmvF-102" value="" style="endArrow=block;html=1;rounded=0;entryX=1;entryY=0.5;entryDx=0;entryDy=0;strokeColor=default;align=center;verticalAlign=middle;fontFamily=Helvetica;fontSize=11;fontColor=default;labelBackgroundColor=default;endFill=1;endSize=1;" edge="1" parent="1" target="YD0R1OaTcSya2No4DmvF-98">
          <mxGeometry width="50" height="50" relative="1" as="geometry">
            <mxPoint x="451" y="305" as="sourcePoint" />
            <mxPoint x="481" y="300" as="targetPoint" />
          </mxGeometry>
        </mxCell>
        <mxCell id="YD0R1OaTcSya2No4DmvF-103" value="" style="endArrow=block;html=1;rounded=0;entryX=1;entryY=0.5;entryDx=0;entryDy=0;strokeColor=default;align=center;verticalAlign=middle;fontFamily=Helvetica;fontSize=11;fontColor=default;labelBackgroundColor=default;endFill=1;endSize=1;" edge="1" parent="1">
          <mxGeometry width="50" height="50" relative="1" as="geometry">
            <mxPoint x="451" y="334.9" as="sourcePoint" />
            <mxPoint x="431" y="334.9" as="targetPoint" />
          </mxGeometry>
        </mxCell>
        <mxCell id="YD0R1OaTcSya2No4DmvF-104" value="" style="endArrow=block;html=1;rounded=0;entryX=1;entryY=0.5;entryDx=0;entryDy=0;strokeColor=default;align=center;verticalAlign=middle;fontFamily=Helvetica;fontSize=11;fontColor=default;labelBackgroundColor=default;endFill=1;endSize=1;" edge="1" parent="1">
          <mxGeometry width="50" height="50" relative="1" as="geometry">
            <mxPoint x="451" y="364.9" as="sourcePoint" />
            <mxPoint x="431" y="364.9" as="targetPoint" />
          </mxGeometry>
        </mxCell>
        <mxCell id="YD0R1OaTcSya2No4DmvF-111" value="" style="labelPosition=right;align=left;strokeWidth=0.5;shape=mxgraph.mockup.markup.curlyBrace;html=1;shadow=0;dashed=0;strokeColor=#999999;direction=north;" vertex="1" parent="1">
          <mxGeometry x="385" y="270" width="30" height="10" as="geometry" />
        </mxCell>
        <mxCell id="YD0R1OaTcSya2No4DmvF-112" value="" style="labelPosition=right;align=left;strokeWidth=0.5;shape=mxgraph.mockup.markup.curlyBrace;html=1;shadow=0;dashed=0;strokeColor=#999999;direction=north;" vertex="1" parent="1">
          <mxGeometry x="385" y="300" width="30" height="10" as="geometry" />
        </mxCell>
        <mxCell id="YD0R1OaTcSya2No4DmvF-113" value="" style="labelPosition=right;align=left;strokeWidth=0.5;shape=mxgraph.mockup.markup.curlyBrace;html=1;shadow=0;dashed=0;strokeColor=#999999;direction=north;" vertex="1" parent="1">
          <mxGeometry x="385" y="330" width="30" height="10" as="geometry" />
        </mxCell>
        <mxCell id="YD0R1OaTcSya2No4DmvF-114" value="" style="labelPosition=right;align=left;strokeWidth=0.5;shape=mxgraph.mockup.markup.curlyBrace;html=1;shadow=0;dashed=0;strokeColor=#999999;direction=north;" vertex="1" parent="1">
          <mxGeometry x="385" y="360" width="30" height="10" as="geometry" />
        </mxCell>
        <mxCell id="YD0R1OaTcSya2No4DmvF-115" value="" style="endArrow=block;html=1;rounded=0;strokeColor=default;align=center;verticalAlign=middle;fontFamily=Helvetica;fontSize=11;fontColor=default;labelBackgroundColor=default;endFill=1;endSize=1;" edge="1" parent="1">
          <mxGeometry width="50" height="50" relative="1" as="geometry">
            <mxPoint x="305.95" y="300" as="sourcePoint" />
            <mxPoint x="305.95" y="310" as="targetPoint" />
          </mxGeometry>
        </mxCell>
        <mxCell id="YD0R1OaTcSya2No4DmvF-116" value="" style="endArrow=block;html=1;rounded=0;strokeColor=default;align=center;verticalAlign=middle;fontFamily=Helvetica;fontSize=11;fontColor=default;labelBackgroundColor=default;endFill=1;endSize=1;" edge="1" parent="1">
          <mxGeometry width="50" height="50" relative="1" as="geometry">
            <mxPoint x="325.95" y="300" as="sourcePoint" />
            <mxPoint x="325.95" y="310" as="targetPoint" />
          </mxGeometry>
        </mxCell>
        <mxCell id="YD0R1OaTcSya2No4DmvF-117" value="" style="endArrow=block;html=1;rounded=0;strokeColor=default;align=center;verticalAlign=middle;fontFamily=Helvetica;fontSize=11;fontColor=default;labelBackgroundColor=default;endFill=1;endSize=1;" edge="1" parent="1">
          <mxGeometry width="50" height="50" relative="1" as="geometry">
            <mxPoint x="346.45" y="300" as="sourcePoint" />
            <mxPoint x="346.45" y="310" as="targetPoint" />
          </mxGeometry>
        </mxCell>
        <mxCell id="YD0R1OaTcSya2No4DmvF-118" value="" style="endArrow=block;html=1;rounded=0;strokeColor=default;align=center;verticalAlign=middle;fontFamily=Helvetica;fontSize=11;fontColor=default;labelBackgroundColor=default;endFill=1;endSize=1;" edge="1" parent="1">
          <mxGeometry width="50" height="50" relative="1" as="geometry">
            <mxPoint x="366.45" y="300" as="sourcePoint" />
            <mxPoint x="366.45" y="310" as="targetPoint" />
          </mxGeometry>
        </mxCell>
        <mxCell id="YD0R1OaTcSya2No4DmvF-119" value="" style="labelPosition=right;align=left;strokeWidth=0.5;shape=mxgraph.mockup.markup.curlyBrace;html=1;shadow=0;dashed=0;strokeColor=#999999;direction=east;" vertex="1" parent="1">
          <mxGeometry x="341.5" y="285" width="10" height="30" as="geometry" />
        </mxCell>
        <mxCell id="YD0R1OaTcSya2No4DmvF-120" value="" style="labelPosition=right;align=left;strokeWidth=0.5;shape=mxgraph.mockup.markup.curlyBrace;html=1;shadow=0;dashed=0;strokeColor=#999999;direction=east;" vertex="1" parent="1">
          <mxGeometry x="321" y="285" width="10" height="30" as="geometry" />
        </mxCell>
        <mxCell id="YD0R1OaTcSya2No4DmvF-121" value="" style="labelPosition=right;align=left;strokeWidth=0.5;shape=mxgraph.mockup.markup.curlyBrace;html=1;shadow=0;dashed=0;strokeColor=#999999;direction=east;" vertex="1" parent="1">
          <mxGeometry x="301" y="285" width="10" height="30" as="geometry" />
        </mxCell>
        <mxCell id="YD0R1OaTcSya2No4DmvF-122" value="" style="labelPosition=right;align=left;strokeWidth=0.5;shape=mxgraph.mockup.markup.curlyBrace;html=1;shadow=0;dashed=0;strokeColor=#999999;direction=east;" vertex="1" parent="1">
          <mxGeometry x="361.5" y="285" width="10" height="30" as="geometry" />
        </mxCell>
      </root>
    </mxGraphModel>
  </diagram>
</mxfile>
